<?xml version="1.0" encoding="utf-8"?>
<!-- Svg Vector Icons : http://www.onlinewebfonts.com/icon -->
<!DOCTYPE svg PUBLIC "-//W3C//DTD SVG 1.1//EN" "http://www.w3.org/Graphics/SVG/1.1/DTD/svg11.dtd">
<svg version="1.1" xmlns="http://www.w3.org/2000/svg" xmlns:xlink="http://www.w3.org/1999/xlink" x="0px" y="0px" viewBox="0 0 1000 1000" enable-background="new 0 0 1000 1000" xml:space="preserve">
<metadata> Svg Vector Icons : http://www.onlinewebfonts.com/icon </metadata>
<g><path d="M850,990H150c-77.3,0-140-62.7-140-140V150C10,72.7,72.7,10,150,10h700c77.3,0,140,62.7,140,140v700C990,927.3,927.3,990,850,990z M920,132.5c0-29-23.5-52.5-52.5-52.5h-735c-29,0-52.5,23.5-52.5,52.5v735c0,29,23.5,52.5,52.5,52.5h735c29,0,52.5-23.5,52.5-52.5V132.5z M624.3,612c9.9,6.3,21.9,9.5,35.9,9.5c14.9,0,27-3.9,36.2-11.6c5.1-4.2,9.6-9.9,13.5-17.4h66.6c-1.7,14.9-9.8,30.2-24.2,45.7C730,662.7,698.7,675,658.4,675c-33.2,0-62.5-10.4-87.9-31.1c-25.4-20.8-38-54.4-38-101.1c0-43.7,11.4-77.3,34.4-100.6c22.9-23.3,52.6-35,89.2-35c21.7,0,41.3,4.1,58.6,11.9c17.4,7.9,31.8,20.3,43.2,37.4c10.1,15.1,16.8,32.5,19.9,52.3c1.7,11.6,2.4,28.2,2.1,50H598.2C599.2,584.1,607.9,601.8,624.3,612z M712.2,515.2c-1.2-17.6-7-30.9-17.4-40c-10.4-9.1-23.3-13.6-38.6-13.6c-16.8,0-29.8,4.9-39,14.4c-9.2,9.7-15,22.7-17.4,39.2H712.2z M570,360h175v35H570V360z M483.6,513.3c8.8,13.8,13.1,30.5,13.1,50.1c0,20.2-5,38.3-15,54.4c-6.4,10.7-14.3,19.6-23.9,27c-10.7,8.3-23.5,13.9-38.1,17.1c-14.7,3-30.6,4.6-47.7,4.6H220V325h163.1c41.1,0.6,70.3,12.7,87.4,36.4c10.3,14.4,15.5,31.8,15.5,52.1c0,20.8-5.2,37.6-15.6,50.3c-5.9,7.1-14.4,13.6-25.7,19.4C461.9,489.6,474.9,499.6,483.6,513.3z M400.6,389.6c-10.4-3.6-23.7-5.3-39.9-5.3h-73.4v75.2h82c14.6,0,26.5-2.8,35.7-8.4c9.1-5.7,13.7-15.7,13.7-30C418.8,405.2,412.7,394.8,400.6,389.6z M404.1,521.9c-8-3.7-19.2-5.6-33.7-5.7h-83v90.9h81.9c14.6,0,26-2.1,34.2-6.1c14.8-7.5,22.2-21.7,22.2-42.6C425.6,540.7,418.4,528.5,404.1,521.9z"/></g>
</svg>